<?xml version="1.0" encoding="UTF-8"?>
<svg id="Calque_1" data-name="Calque 1" xmlns="http://www.w3.org/2000/svg" viewBox="0 0 640 640">
  <path d="M319.998,105.415c121.77,0,220.483,98.712,220.483,220.481s-98.714,220.481-220.483,220.481-220.48-98.712-220.48-220.481,98.711-220.481,220.48-220.481M320,237.702c24.354,0,44.097-19.741,44.097-44.096s-19.743-44.095-44.097-44.095-44.096,19.743-44.096,44.095,19.743,44.096,44.096,44.096M320,369.992c24.354,0,44.097-19.741,44.097-44.096s-19.743-44.096-44.097-44.096-44.096,19.744-44.096,44.096,19.743,44.096,44.096,44.096M320,502.282c24.354,0,44.097-19.741,44.097-44.096s-19.743-44.096-44.097-44.096-44.096,19.744-44.096,44.096,19.743,44.096,44.096,44.096M319.998,40.454c-38.506,0-75.894,7.556-111.127,22.458-33.997,14.38-64.517,34.952-90.71,61.146-26.194,26.194-46.766,56.713-61.146,90.711-14.902,35.233-22.458,72.621-22.458,111.127s7.555,75.894,22.458,111.127c14.38,33.998,34.952,64.517,61.146,90.711,26.193,26.194,56.713,46.766,90.71,61.146,35.233,14.902,72.621,22.458,111.127,22.458s75.895-7.556,111.127-22.458c33.998-14.38,64.518-34.952,90.712-61.146,26.194-26.194,46.767-56.713,61.147-90.711,14.902-35.233,22.459-72.621,22.459-111.127s-7.556-75.894-22.459-111.127c-14.38-33.998-34.952-64.517-61.147-90.711-26.194-26.194-56.714-46.766-90.712-61.146-35.232-14.902-72.621-22.458-111.127-22.458h0Z"/>
</svg>