<?xml version="1.0" encoding="UTF-8"?>
<svg id="Calque_1" data-name="Calque 1" xmlns="http://www.w3.org/2000/svg" viewBox="0 0 640 640">
  <path d="M319.88,166.128c41.396,0,85.497,12.614,131.075,37.493,36.895,20.138,74.077,47.823,110.512,82.283,8.601,8.135,13.533,20.498,13.533,33.921s-4.933,25.786-13.533,33.92c-36.436,34.461-73.617,62.146-110.512,82.284-45.579,24.878-89.679,37.493-131.075,37.493s-85.262-12.547-130.71-37.293c-36.831-20.055-73.959-47.64-110.354-81.99-8.78-8.286-13.815-20.83-13.815-34.414s5.036-26.128,13.816-34.415c36.395-34.35,73.523-61.935,110.354-81.989,45.448-24.746,89.425-37.293,130.71-37.293M319.88,101.128c-116.372,0-219.85,74.882-285.679,137.011-45.602,43.039-45.602,120.332,0,163.371,65.829,62.13,169.307,137.011,285.679,137.011s220.452-75.318,286.252-137.553c45.158-42.711,45.158-119.577,0-162.288-65.8-62.235-169.542-137.553-286.252-137.553h0Z"/>
  <path d="M320,221.759c54.258,0,98.242,43.984,98.242,98.241s-43.984,98.242-98.242,98.242-98.242-43.984-98.242-98.242,43.985-98.241,98.242-98.241M320,339.648c10.852,0,19.648-8.797,19.648-19.648s-8.797-19.648-19.648-19.648-19.648,8.796-19.648,19.648,8.797,19.648,19.648,19.648M320,156.759c-22.009,0-43.394,4.325-63.561,12.855-19.446,8.225-36.897,19.986-51.868,34.957-14.971,14.971-26.732,32.422-34.958,51.868-8.53,20.167-12.855,41.552-12.855,63.561s4.325,43.394,12.855,63.561c8.226,19.447,19.987,36.898,34.958,51.869,14.971,14.971,32.422,26.732,51.868,34.957,20.167,8.53,41.552,12.855,63.561,12.855s43.394-4.325,63.561-12.855c19.446-8.225,36.897-19.986,51.869-34.957,14.971-14.971,26.732-32.422,34.957-51.869,8.53-20.167,12.855-41.552,12.855-63.561s-4.325-43.394-12.855-63.561c-8.225-19.447-19.986-36.897-34.957-51.869-14.971-14.971-32.422-26.732-51.869-34.957-20.167-8.53-41.552-12.855-63.561-12.855h0Z"/>
  <path d="M320,364.096c24.354,0,44.096-19.744,44.096-44.096s-19.743-44.096-44.096-44.096-44.096,19.741-44.096,44.096,19.742,44.096,44.096,44.096h0Z"/>
</svg>