<?xml version="1.0" encoding="UTF-8"?>
<svg id="Calque_1" data-name="Calque 1" xmlns="http://www.w3.org/2000/svg" viewBox="0 0 640 640">
  <path d="M320.002,105.415l254.534,440.963H65.464L320.002,105.415M320,369.992c24.353,0,44.095-19.743,44.095-44.097s-19.743-44.097-44.095-44.097-44.095,19.743-44.095,44.097,19.74,44.097,44.095,44.097M320.002,40.454c-23.21,0-44.657,12.384-56.26,32.485L9.204,513.902c-11.602,20.099-11.6,44.861.004,64.958,11.604,20.097,33.049,32.478,56.256,32.478h509.072c23.207,0,44.652-12.381,56.256-32.478,11.604-20.097,11.606-44.859.005-64.957L376.263,72.94c-11.603-20.102-33.05-32.486-56.26-32.486h0Z"/>
</svg>